<svg width="203" height="61" fill="none" xmlns="http://www.w3.org/2000/svg"><path d="M74.088 42.122H68.2v-24.95h12.09c5.781 0 9.81 3.434 9.81 8.41 0 3.365-2.206 6.168-5.466 7.213l6.028 9.321h-6.58l-4.907-8.55h-5.088v8.556Zm0-20.499v7.813h5.256c2.77 0 4.871-1.541 4.871-3.854 0-2.523-2.102-3.96-4.871-3.96l-5.256.001Zm18.814-2.806c0-1.717 1.262-2.943 3.05-2.943C97.74 15.874 99 17.1 99 18.817c0 1.753-1.262 2.98-3.048 2.98-1.787 0-3.05-1.227-3.05-2.98Zm5.678 5.362v17.942h-5.256V24.18h5.256Zm14.356 18.644a7.51 7.51 0 0 1-5.993-2.874v2.172h-5.181v-26h5.256v10.23a7.319 7.319 0 0 1 5.918-2.872c5.011 0 8.514 3.995 8.514 9.672 0 5.677-3.537 9.672-8.514 9.672Zm-6.133-9.672c0 2.839 1.963 4.94 4.695 4.94 2.699 0 4.696-2.067 4.696-4.94 0-2.839-1.961-4.942-4.696-4.942-2.734 0-4.694 2.103-4.694 4.942h-.001Zm27.861 9.672a7.507 7.507 0 0 1-5.991-2.874v2.172h-5.187v-26h5.256v10.23a7.331 7.331 0 0 1 5.922-2.872c5.012 0 8.517 3.995 8.517 9.672 0 5.677-3.541 9.672-8.517 9.672Zm-6.132-9.672c0 2.839 1.963 4.94 4.695 4.94 2.699 0 4.696-2.067 4.696-4.94 0-2.839-1.962-4.942-4.696-4.942s-4.695 2.103-4.695 4.942Zm30.557-8.97h5.258v17.942h-5.258v-2.48c-1.401 1.996-3.536 3.189-6.097 3.189-5.045 0-8.586-3.996-8.586-9.672s3.536-9.672 8.586-9.672c2.558 0 4.696 1.191 6.097 3.188v-2.495Zm-.035 8.972c0-2.91-1.962-5.047-4.696-5.047s-4.696 2.137-4.696 5.047c0 2.91 1.963 5.045 4.696 5.045 2.733 0 4.696-2.137 4.696-5.045Zm15.736 9.741c-4.836 0-8.345-2.838-8.305-6.763h4.449c0 1.787 1.648 3.048 3.925 3.048 1.928 0 3.33-.91 3.33-2.101 0-1.508-2.033-1.928-4.205-2.139-3.996-.49-7.324-1.122-7.324-5.502 0-3.504 3.328-6.027 7.709-6.027 4.809 0 8.271 2.594 8.271 6.202h-4.626c0-1.47-1.578-2.488-3.678-2.488-1.612 0-2.909.842-2.943 2.033 0 1.192 1.575 1.542 3.608 1.857 3.645.49 8.236 1.228 8.236 5.433-.006 3.748-3.436 6.447-8.447 6.447Zm15.598-26.774v10.092c1.191-1.753 3.328-2.733 5.502-2.733 4.135 0 6.833 3.013 6.833 7.253v11.39h-5.257V31.818c0-2.173-1.262-3.678-3.364-3.715-2.032 0-3.714 1.647-3.714 3.925V42.12h-5.257v-26h5.257ZM76.258 56.39l1.816-6.763h1.341l-2.121 7.694H75.28l-1.501-6.223-1.49 6.223h-2.022l-2.13-7.694h1.348l1.826 6.762 1.632-6.762h1.717l1.598 6.762Zm6.335-4.807c1.717 0 2.935 1.218 2.935 2.925 0 .13-.011.294-.021.424l-4.654-.011c.142.979.827 1.63 1.729 1.63.74 0 1.424-.433 1.63-1.043l1.11.164c-.316 1.088-1.457 1.87-2.719 1.87-1.728 0-2.97-1.273-2.97-3.044.003-1.703 1.242-2.915 2.96-2.915Zm1.706 2.468a1.697 1.697 0 0 0-1.738-1.478c-.893 0-1.545.598-1.698 1.478H84.3Zm5.581 3.27v-7.694h3.48c1.49 0 2.546.87 2.546 2.065a1.63 1.63 0 0 1-1.143 1.588c.795.196 1.36.956 1.36 1.848 0 1.284-1.132 2.196-2.719 2.196l-3.523-.003Zm1.305-6.62v2.076h1.98c.837 0 1.424-.425 1.424-1.033 0-.608-.587-1.044-1.424-1.044h-1.98Zm2.001 3.098H91.19v2.446h2.002c.944 0 1.62-.522 1.62-1.228s-.676-1.215-1.62-1.215l-.005-.003Zm8.055 3.521v-.706a2.16 2.16 0 0 1-1.783.923c-1.36 0-2.24-1-2.24-2.37v-3.362h1.186v3.284c0 .815.478 1.402 1.315 1.402a1.491 1.491 0 0 0 1.511-1.511v-3.175h1.174v5.516h-1.163Zm2.462-7.139a.733.733 0 0 1 1.253-.519.733.733 0 0 1-.519 1.253.736.736 0 0 1-.734-.734Zm1.327 1.624v5.516h-1.174v-5.516h1.174Zm2.546-2.505v8.02h-1.174V49.3h1.174Zm3.754 2.284a2.47 2.47 0 0 1 2 .967v-3.253h1.185v8.024h-1.154v-.773a2.5 2.5 0 0 1-2.033.99c-1.598 0-2.773-1.25-2.773-2.978 0-1.728 1.165-2.977 2.775-2.977Zm-1.599 2.98c0 1.097.783 1.87 1.826 1.87 1.044 0 1.817-.794 1.817-1.87 0-1.077-.761-1.872-1.817-1.872-1.055 0-1.826.795-1.826 1.872Zm9.357-4.937h2.617c2.674 0 4.458 1.532 4.458 3.849 0 2.316-1.781 3.845-4.458 3.845h-2.617v-7.694Zm2.619 1.086h-1.326v5.523h1.324c1.881 0 3.154-1.065 3.154-2.76 0-1.696-1.27-2.763-3.154-2.763h.002Zm5.531-.532a.737.737 0 0 1 .734-.734.732.732 0 0 1 .734.734.733.733 0 1 1-1.468 0Zm1.327 1.62v5.516h-1.174v-5.512l1.174-.004Zm5.883 5.415v-.707a2.469 2.469 0 0 1-1.989.924c-1.609 0-2.783-1.197-2.783-2.87 0-1.719 1.174-2.958 2.783-2.958a2.462 2.462 0 0 1 2 .945v-.744h1.174v5.426c0 1.783-1.206 2.816-2.892 2.816-1.446 0-2.642-.914-2.838-2.186l1.088-.13a1.762 1.762 0 0 0 1.707 1.316c1.022-.004 1.75-.668 1.75-1.832Zm.044-2.652c0-1.12-.761-1.925-1.816-1.925-1.055 0-1.826.805-1.826 1.925 0 1.077.772 1.859 1.826 1.859 1.053 0 1.816-.782 1.816-1.859Zm2.385-4.383a.733.733 0 0 1 1.253-.519.733.733 0 0 1-.519 1.253.734.734 0 0 1-.734-.734Zm1.327 1.62v5.516h-1.174v-5.512l1.174-.004Zm1.85.923h-.849v-.92h.914l.153-1.337h.967v1.338h1.348v.923h-1.348v2.97c0 .501.304.85.805.85a2.36 2.36 0 0 0 .619-.098v.945c-.316.1-.646.152-.978.152-.991 0-1.631-.717-1.631-1.772v-3.05Zm8.201-.92h1.185v5.516h-1.185v-.826a2.47 2.47 0 0 1-2.055 1.044c-1.62 0-2.772-1.25-2.772-2.978 0-1.729 1.152-2.98 2.772-2.98a2.476 2.476 0 0 1 2.055 1.043v-.819Zm-.01 2.763c0-1.12-.762-1.925-1.816-1.925s-1.827.804-1.827 1.925c0 1.12.772 1.923 1.827 1.923s1.816-.809 1.816-1.928v.005Zm3.702-5.267v8.02h-1.176V49.3h1.176Zm5.826 5.676v2.345h-1.261v-7.694h2.978c1.805 0 3.099 1.119 3.099 2.675 0 1.555-1.294 2.674-3.111 2.674h-1.705Zm0-4.273v3.186h1.501c1.174 0 2.021-.664 2.011-1.587-.01-.924-.837-1.599-2.011-1.599h-1.501Zm7.045 1.102v.707a1.724 1.724 0 0 1 1.5-.903c.243.007.482.055.708.142v1.044a2.32 2.32 0 0 0-.859-.174c-.782 0-1.304.696-1.304 1.674v3.026h-1.185v-5.516h1.14Zm8.419 2.758c0 1.75-1.24 2.979-3.001 2.979s-3.002-1.23-3.002-2.979c0-1.75 1.229-2.98 3.002-2.98 1.772 0 3.001 1.23 3.001 2.98Zm-1.174 0c0-1.12-.772-1.925-1.827-1.925s-1.816.805-1.816 1.925.751 1.924 1.816 1.924 1.823-.805 1.823-1.924h.004Zm4.754-2.979a2.478 2.478 0 0 1 2.002.967v-3.253h1.184v8.024h-1.156v-.773a2.494 2.494 0 0 1-2.034.99c-1.598 0-2.772-1.25-2.772-2.978 0-1.728 1.167-2.977 2.776-2.977Zm-1.598 2.98c0 1.097.784 1.87 1.828 1.87 1.043 0 1.814-.794 1.814-1.87 0-1.077-.761-1.872-1.814-1.872-1.054 0-1.828.795-1.828 1.872Zm9.944 2.756v-.706a2.155 2.155 0 0 1-1.784.923c-1.359 0-2.24-1-2.24-2.37v-3.362h1.185v3.284c0 .815.478 1.402 1.315 1.402a1.493 1.493 0 0 0 1.512-1.511v-3.175h1.174v5.516h-1.162Zm7.865-3.638-1.132.141a1.648 1.648 0 0 0-1.609-1.229c-.979 0-1.75.826-1.75 1.97 0 1.142.761 1.967 1.75 1.967a1.665 1.665 0 0 0 1.621-1.218l1.131.141c-.227 1.207-1.391 2.088-2.751 2.088-1.697 0-2.925-1.25-2.925-2.979 0-1.728 1.229-2.98 2.915-2.98 1.401 0 2.553.881 2.75 2.099Zm1.592-.958h-.849v-.92h.918l.153-1.337h.968v1.338h1.348v.923h-1.348v2.97c0 .501.304.85.804.85a2.35 2.35 0 0 0 .62-.098v.945c-.317.1-.647.152-.979.152-.99 0-1.631-.717-1.631-1.772l-.004-3.05Zm5.971 4.829c-1.457 0-2.511-.881-2.511-2.1h1.086c0 .653.599 1.133 1.425 1.133.739 0 1.273-.337 1.261-.794 0-.576-.858-.717-1.414-.794-1.294-.195-2.273-.359-2.273-1.674 0-1.011.967-1.75 2.218-1.75 1.424 0 2.468.794 2.468 1.891h-1.091c-.011-.543-.587-.923-1.38-.923-.598 0-1.099.325-1.099.772 0 .413.413.543 1.305.696 1.054.174 2.413.401 2.413 1.652-.005 1.093-1.005 1.89-2.408 1.89Z" fill="#023D4D"/><path d="m18.834 44.817.13.095-.136-.092.006-.003Z" fill="url(#a)"/><path d="M38.972 39.624v20.622L18.74 45.09l.222-.178h.005l6.46-5.21.095-.077h13.45Z" fill="url(#b)"/><path d="m18.397 44.83.12.095-.124-.09.004-.005Z" fill="url(#c)"/><path d="m18.834 44.817.13.095-.136-.092.006-.003Z" fill="url(#d)"/><path d="m18.74 45.09.222-.178h.005l5.984-4.826 14.02 20.16-20.23-15.156Z" fill="url(#e)"/><path d="M24.355 23.516 0 0l45.484 23.516H24.355Z" fill="url(#f)"/><path d="M0 60.247V0l24.355 23.516L0 60.246Z" fill="url(#g)"/><path d="m0 60.246 45.514-36.73h-21.16L0 60.246Z" fill="url(#h)"/><path d="m21.971 44.925-.12-.09.005-.005.115.095Z" fill="url(#i)"/><defs><linearGradient id="a" x1="18.828" y1="44.866" x2="18.965" y2="44.866" gradientUnits="userSpaceOnUse"><stop stop-color="#26D09B"/><stop offset="1" stop-color="#87D46A"/></linearGradient><linearGradient id="b" x1="6372.09" y1="10036.8" x2="9266.03" y2="10036.8" gradientUnits="userSpaceOnUse"><stop stop-color="#26D09B"/><stop offset="1" stop-color="#87D46A"/></linearGradient><linearGradient id="c" x1="18.393" y1="44.877" x2="18.517" y2="44.877" gradientUnits="userSpaceOnUse"><stop stop-color="#326483"/><stop offset="1" stop-color="#0C9AA3"/></linearGradient><linearGradient id="d" x1="61.834" y1="87.495" x2="61.965" y2="87.495" gradientUnits="userSpaceOnUse"><stop stop-color="#326483"/><stop offset="1" stop-color="#0C9AA3"/></linearGradient><linearGradient id="e" x1="6372.09" y1="9846.57" x2="9266.03" y2="9846.57" gradientUnits="userSpaceOnUse"><stop stop-color="#326483"/><stop offset="1" stop-color="#0C9AA3"/></linearGradient><linearGradient id="f" x1="22034.5" y1="7768.25" x2="13582.2" y2="-1670.85" gradientUnits="userSpaceOnUse"><stop stop-color="#326483"/><stop offset="1" stop-color="#0C9AA3"/></linearGradient><linearGradient id="g" x1="4421.1" y1="20767" x2="8614.73" y2="20767" gradientUnits="userSpaceOnUse"><stop stop-color="#26D09B"/><stop offset="1" stop-color="#87D46A"/></linearGradient><linearGradient id="h" x1="8262.19" y1="15738" x2="22908.2" y2="15738" gradientUnits="userSpaceOnUse"><stop stop-color="#326483"/><stop offset="1" stop-color="#0C9AA3"/></linearGradient><linearGradient id="i" x1="62.046" y1="87.515" x2="62.146" y2="87.515" gradientUnits="userSpaceOnUse"><stop stop-color="#326483"/><stop offset="1" stop-color="#0C9AA3"/></linearGradient></defs></svg>