<svg width="230" height="69" fill="none" xmlns="http://www.w3.org/2000/svg"><path d="m21.338 50.78.149.107-.155-.105.006-.003Z" fill="url(#a)"/><path d="m20.845 50.793.135.108-.14-.103.005-.005Z" fill="url(#b)"/><path d="m21.338 50.78.149.107-.155-.105.006-.003Z" fill="url(#c)"/><path d="M0 68.26V0l27.594 26.644L0 68.26Z" fill="url(#d)"/><path d="m24.895 50.9-.135-.102.005-.005.13.108Z" fill="url(#e)"/><path d="M83.941 47.724h-6.67V19.455h13.697c6.551 0 11.117 3.891 11.117 9.529 0 3.812-2.5 6.988-6.194 8.173l6.83 10.56h-7.456l-5.56-9.687h-5.764v9.694Zm0-23.226v8.853h5.955c3.138 0 5.52-1.747 5.52-4.367 0-2.86-2.382-4.487-5.52-4.487l-5.955.001Zm21.317-3.178c0-1.945 1.429-3.335 3.455-3.335 2.025 0 3.453 1.39 3.453 3.335 0 1.986-1.429 3.375-3.453 3.375s-3.455-1.39-3.455-3.375Zm6.432 6.075v20.329h-5.955V27.395h5.955Zm16.267 21.124a8.51 8.51 0 0 1-6.79-3.256v2.46h-5.87V18.266h5.955v11.592a8.296 8.296 0 0 1 6.705-3.254c5.678 0 9.647 4.525 9.647 10.958 0 6.432-4.008 10.958-9.647 10.958Zm-6.949-10.958c0 3.216 2.225 5.597 5.321 5.597 3.057 0 5.32-2.343 5.32-5.597 0-3.217-2.223-5.6-5.32-5.6-3.098 0-5.319 2.383-5.319 5.6h-.002Zm31.567 10.958a8.502 8.502 0 0 1-6.788-3.256v2.46h-5.877V18.266h5.955v11.592a8.302 8.302 0 0 1 6.71-3.254c5.678 0 9.649 4.525 9.649 10.958 0 6.432-4.011 10.958-9.649 10.958Zm-6.949-10.958c0 3.216 2.225 5.597 5.321 5.597 3.057 0 5.32-2.343 5.32-5.597 0-3.217-2.223-5.6-5.32-5.6-3.098 0-5.321 2.383-5.321 5.6Zm34.623-10.164h5.957v20.328h-5.957v-2.811c-1.588 2.263-4.006 3.614-6.908 3.614-5.717 0-9.728-4.528-9.728-10.959 0-6.43 4.007-10.958 9.728-10.958 2.899 0 5.32 1.35 6.908 3.612v-2.826Zm-.04 10.164c0-3.296-2.223-5.717-5.32-5.717-3.098 0-5.321 2.421-5.321 5.717 0 3.297 2.225 5.717 5.321 5.717 3.096 0 5.32-2.422 5.32-5.717Zm17.83 11.039c-5.479 0-9.455-3.215-9.41-7.662h5.042c0 2.024 1.867 3.453 4.447 3.453 2.184 0 3.772-1.032 3.772-2.381 0-1.709-2.303-2.185-4.764-2.423-4.527-.556-8.298-1.271-8.298-6.234 0-3.97 3.771-6.829 8.734-6.829 5.448 0 9.371 2.94 9.371 7.027h-5.241c0-1.666-1.787-2.818-4.167-2.818-1.827 0-3.296.953-3.335 2.302 0 1.351 1.785 1.747 4.088 2.105 4.13.556 9.332 1.39 9.332 6.155-.007 4.247-3.893 7.304-9.571 7.304Zm17.671-30.335v11.434c1.35-1.986 3.771-3.096 6.234-3.096 4.685 0 7.742 3.413 7.742 8.217v12.904h-5.956V36.05c0-2.461-1.43-4.167-3.811-4.208-2.303 0-4.209 1.865-4.209 4.447v11.434h-5.956v-29.46h5.956ZM86.4 63.89l2.059-7.662h1.519l-2.404 8.718h-2.282l-1.7-7.05-1.688 7.05h-2.291l-2.414-8.718h1.527l2.07 7.662 1.849-7.662h1.945l1.81 7.662Zm7.179-5.447c1.945 0 3.325 1.38 3.325 3.314 0 .148-.013.334-.024.481l-5.272-.013c.16 1.11.935 1.848 1.958 1.848.838 0 1.614-.492 1.848-1.183l1.256.186c-.357 1.233-1.65 2.119-3.08 2.119-1.958 0-3.365-1.442-3.365-3.449.003-1.93 1.407-3.303 3.354-3.303Zm1.932 2.797a1.923 1.923 0 0 0-1.97-1.675c-1.01 0-1.75.678-1.922 1.675h3.892Zm6.325 3.706v-8.718h3.942c1.688 0 2.885.986 2.885 2.34a1.844 1.844 0 0 1-1.295 1.8c.9.221 1.54 1.083 1.54 2.093 0 1.455-1.282 2.489-3.08 2.489l-3.992-.004Zm1.477-7.501v2.352h2.244c.949 0 1.614-.48 1.614-1.17 0-.689-.665-1.182-1.614-1.182h-2.244Zm2.268 3.511h-2.263v2.77h2.268c1.07 0 1.835-.59 1.835-1.39 0-.8-.765-1.377-1.835-1.377l-.005-.003Zm9.125 3.989v-.801a2.446 2.446 0 0 1-2.021 1.046c-1.54 0-2.537-1.133-2.537-2.685v-3.81h1.343v3.721c0 .923.542 1.588 1.491 1.588a1.694 1.694 0 0 0 1.711-1.711v-3.598h1.33v6.25h-1.317Zm2.79-8.089a.832.832 0 1 1 1.664.001.832.832 0 0 1-1.664 0Zm1.503 1.84v6.25h-1.33v-6.25h1.33Zm2.884-2.839v9.088h-1.33v-9.088h1.33Zm4.253 2.588a2.8 2.8 0 0 1 2.266 1.096v-3.685h1.343v9.09h-1.307v-.874a2.838 2.838 0 0 1-2.303 1.121c-1.811 0-3.143-1.416-3.143-3.374 0-1.959 1.321-3.374 3.144-3.374Zm-1.811 3.377c0 1.243.887 2.118 2.069 2.118 1.183 0 2.058-.899 2.058-2.118 0-1.22-.862-2.12-2.058-2.12-1.195 0-2.069.9-2.069 2.12Zm10.603-5.594h2.964c3.031 0 5.052 1.736 5.052 4.361s-2.018 4.357-5.052 4.357h-2.964v-8.718Zm2.968 1.231h-1.504v6.258h1.5c2.132 0 3.574-1.207 3.574-3.128s-1.439-3.13-3.574-3.13h.004Zm6.264-.603a.832.832 0 1 1 1.664.001.832.832 0 0 1-1.664 0Zm1.503 1.835v6.25h-1.33v-6.245l1.33-.005Zm6.668 6.135v-.801a2.81 2.81 0 0 1-2.253 1.046c-1.824 0-3.154-1.356-3.154-3.252 0-1.947 1.33-3.35 3.154-3.35a2.786 2.786 0 0 1 2.266 1.07v-.843h1.33v6.148c0 2.02-1.367 3.19-3.277 3.19-1.638 0-2.994-1.035-3.215-2.476l1.232-.147a1.997 1.997 0 0 0 1.934 1.49c1.157-.005 1.983-.756 1.983-2.075Zm.049-3.005c0-1.27-.862-2.181-2.057-2.181-1.196 0-2.069.912-2.069 2.181 0 1.22.875 2.106 2.069 2.106s2.057-.886 2.057-2.106Zm2.702-4.965a.832.832 0 1 1 1.664.001.832.832 0 0 1-1.664 0Zm1.503 1.835v6.25h-1.33v-6.245l1.33-.005Zm2.097 1.046h-.961v-1.041h1.035l.173-1.516h1.096v1.516h1.527v1.046h-1.527v3.365c0 .568.345.962.912.962.238-.005.474-.043.702-.11v1.07a3.69 3.69 0 0 1-1.109.173c-1.122 0-1.848-.813-1.848-2.008v-3.457Zm9.291-1.042h1.343v6.25h-1.343v-.936a2.8 2.8 0 0 1-2.328 1.182c-1.835 0-3.141-1.416-3.141-3.375 0-1.958 1.306-3.376 3.141-3.376a2.8 2.8 0 0 1 2.328 1.182v-.927Zm-.011 3.13c0-1.27-.864-2.182-2.058-2.182-1.193 0-2.07.912-2.07 2.181 0 1.27.875 2.18 2.07 2.18 1.196 0 2.058-.917 2.058-2.185v.005Zm4.194-5.968v9.088h-1.332v-9.088h1.332Zm6.602 6.433v2.656h-1.43v-8.718h3.375c2.045 0 3.511 1.268 3.511 3.03 0 1.764-1.466 3.031-3.525 3.031h-1.931Zm0-4.842v3.609h1.7c1.33 0 2.29-.752 2.279-1.798-.012-1.047-.949-1.811-2.279-1.811h-1.7Zm7.981 1.247v.801a1.953 1.953 0 0 1 1.7-1.022c.274.007.545.061.801.16v1.183a2.618 2.618 0 0 0-.972-.198c-.886 0-1.478.789-1.478 1.898v3.428h-1.343v-6.25h1.292Zm9.539 3.125c0 1.982-1.406 3.375-3.401 3.375-1.995 0-3.4-1.393-3.4-3.375s1.392-3.377 3.4-3.377 3.401 1.393 3.401 3.377Zm-1.33 0c0-1.27-.875-2.181-2.071-2.181-1.195 0-2.058.912-2.058 2.18 0 1.27.851 2.18 2.058 2.18 1.207 0 2.066-.912 2.066-2.18h.005Zm5.387-3.375a2.8 2.8 0 0 1 2.268 1.096v-3.685h1.341v9.09h-1.309v-.874a2.836 2.836 0 0 1-2.305 1.121c-1.81 0-3.141-1.416-3.141-3.374 0-1.959 1.323-3.374 3.146-3.374Zm-1.811 3.377c0 1.243.888 2.118 2.071 2.118 1.182 0 2.056-.899 2.056-2.118 0-1.22-.862-2.12-2.056-2.12s-2.071.9-2.071 2.12Zm11.266 3.123v-.801a2.446 2.446 0 0 1-2.021 1.046c-1.54 0-2.539-1.133-2.539-2.685v-3.81h1.343v3.721c0 .923.542 1.588 1.491 1.588a1.694 1.694 0 0 0 1.713-1.711v-3.598h1.33v6.25h-1.317Zm8.911-4.123-1.282.16a1.866 1.866 0 0 0-1.823-1.393c-1.109 0-1.983.936-1.983 2.23 0 1.296.862 2.23 1.983 2.23a1.885 1.885 0 0 0 1.836-1.38l1.282.16c-.258 1.367-1.577 2.366-3.117 2.366-1.923 0-3.314-1.417-3.314-3.375s1.393-3.377 3.303-3.377c1.587 0 2.893.999 3.115 2.379Zm1.803-1.085h-.961v-1.041h1.04l.173-1.516h1.096v1.516h1.527v1.046h-1.527v3.365c0 .568.345.962.912.962.238-.005.474-.043.702-.11v1.07a3.69 3.69 0 0 1-1.109.173c-1.122 0-1.848-.813-1.848-2.008l-.005-3.457Zm6.766 5.47c-1.65 0-2.844-.998-2.844-2.378h1.231c0 .74.677 1.282 1.613 1.282.838 0 1.443-.381 1.43-.899 0-.652-.973-.812-1.603-.899-1.466-.22-2.575-.407-2.575-1.897 0-1.146 1.096-1.982 2.513-1.982 1.613 0 2.796.899 2.796 2.142h-1.235c-.013-.615-.665-1.046-1.565-1.046-.677 0-1.245.368-1.245.875 0 .468.468.615 1.479.788 1.194.197 2.734.455 2.734 1.872-.006 1.239-1.139 2.142-2.729 2.142Z" fill="#fff"/><path d="M44.157 44.895v23.364L21.234 51.087l.252-.202h.005l7.32-5.902.108-.088h15.238Z" fill="url(#f)"/><path d="m21.234 51.087.252-.202h.005l6.78-5.468 15.886 22.842-22.923-17.172Z" fill="url(#g)"/><path d="M27.594 26.644 0 0l51.534 26.644h-23.94Z" fill="url(#h)"/><path d="m0 68.26 51.568-41.616H27.594L0 68.26Z" fill="url(#i)"/><defs><linearGradient id="a" x1="21.332" y1="50.834" x2="21.487" y2="50.834" gradientUnits="userSpaceOnUse"><stop stop-color="#26D09B"/><stop offset="1" stop-color="#87D46A"/></linearGradient><linearGradient id="b" x1="20.84" y1="50.846" x2="20.98" y2="50.846" gradientUnits="userSpaceOnUse"><stop stop-color="#326483"/><stop offset="1" stop-color="#0C9AA3"/></linearGradient><linearGradient id="c" x1="70.058" y1="99.133" x2="70.207" y2="99.133" gradientUnits="userSpaceOnUse"><stop stop-color="#326483"/><stop offset="1" stop-color="#0C9AA3"/></linearGradient><linearGradient id="d" x1="5009.13" y1="23529.1" x2="9760.53" y2="23529.1" gradientUnits="userSpaceOnUse"><stop stop-color="#26D09B"/><stop offset="1" stop-color="#87D46A"/></linearGradient><linearGradient id="e" x1="70.3" y1="99.155" x2="70.414" y2="99.155" gradientUnits="userSpaceOnUse"><stop stop-color="#326483"/><stop offset="1" stop-color="#0C9AA3"/></linearGradient><linearGradient id="f" x1="7219.61" y1="11371.7" x2="10498.5" y2="11371.7" gradientUnits="userSpaceOnUse"><stop stop-color="#26D09B"/><stop offset="1" stop-color="#87D46A"/></linearGradient><linearGradient id="g" x1="7219.61" y1="11156.2" x2="10498.5" y2="11156.2" gradientUnits="userSpaceOnUse"><stop stop-color="#326483"/><stop offset="1" stop-color="#0C9AA3"/></linearGradient><linearGradient id="h" x1="24965.2" y1="8801.47" x2="15388.7" y2="-1893.08" gradientUnits="userSpaceOnUse"><stop stop-color="#326483"/><stop offset="1" stop-color="#0C9AA3"/></linearGradient><linearGradient id="i" x1="9361.1" y1="17831.3" x2="25955.1" y2="17831.3" gradientUnits="userSpaceOnUse"><stop stop-color="#326483"/><stop offset="1" stop-color="#0C9AA3"/></linearGradient></defs></svg>